<?xml version="1.0" encoding="utf-8"?>
<!-- Generator: Adobe Illustrator 25.2.0, SVG Export Plug-In . SVG Version: 6.00 Build 0)  -->
<svg version="1.1" id="Layer_1" xmlns="http://www.w3.org/2000/svg" xmlns:xlink="http://www.w3.org/1999/xlink" x="0px" y="0px"
	 viewBox="0 0 496.5 347.1" style="enable-background:new 0 0 496.5 347.1;" xml:space="preserve">
<style type="text/css">
	.st0{fill:none;stroke:#000000;stroke-miterlimit:10;}
</style>
<path class="st0" d="M0.1,346.6c0,0,93.2-28.6,153.2-105.5s85.2-148.2,95-194.5c3-14.1,29.1-38.4,32.2-38.9
	c3.1-0.4-45.2,50.2-50.1,54.4c0,0-14.4,15.4-15.3,15.4c-0.9,0-16.6-75.3-15.7-76.3c0.9-1,120.7,106,121.9,107.4
	c1.2,1.4-104-33.6-104.9-33.9S199.2,0.8,200.9,0.5c1.6-0.3,79.4,4.9,81.3,5.6s38.8,96.1,42.1,102.7c3.3,6.5,4.6,20.7,4.7,31.1
	c0.1,10.4,3.4,28,20,40.3c16.6,12.3,28.1,9.8,33.9,4s5.8-14.6-5.6-18.3c-11.4-3.7-13.7,12.9-13,17.7s5.8,16.7,27.9,19.5
	c22.1,2.8,107,24.9,103.9,48.4"/>
</svg>
