<?xml version="1.0" encoding="utf-8"?>
<!-- Generator: Adobe Illustrator 25.2.0, SVG Export Plug-In . SVG Version: 6.00 Build 0)  -->
<svg version="1.1" id="Layer_1" xmlns="http://www.w3.org/2000/svg" xmlns:xlink="http://www.w3.org/1999/xlink" x="0px" y="0px"
	 viewBox="0 0 496.5 347.1" style="enable-background:new 0 0 496.5 347.1;" xml:space="preserve">
<style type="text/css">
	.st0{fill:none;stroke:#000000;stroke-miterlimit:10;}
</style>
<path class="st0" d="M0.1,346.6c0,0,96.7-24.2,156.7-101.1s82.9-149.6,90.5-196.4c2.3-14.2,27.2-39.8,30.3-40.4
	s-42.8,52.3-47.4,56.8c0,0-13.6,16.1-14.5,16.1c-0.9,0-20.2-74.4-19.4-75.5S322,106.3,323.3,107.7S217.8,79.1,216.9,78.8
	c-0.9-0.3-20.8-73-19.2-73.4s79.5,1.1,81.4,1.7s43.4,94.2,47,100.5c3.6,6.4,2.7,21.9,2.9,32.2c0.2,13.4,3.5,27.5,12.6,37.8
	c8.5,9.6,27.1,20,38.7,9.7c4.1-3.6,6-9.5,5-14.8c-0.8-4-3.6-7.9-7.6-8.7c-10-1.9-14.6,11.2-14.7,18.8c-0.2,12.6,11.5,17.8,22,20.3
	c14.8,3.5,29.5,5.2,43.7,11.5c20.9,9.3,42.8,27.2,35,52.7"/>
</svg>
